<?xml version="1.0" encoding="iso-8859-1"?>
<!-- Uploaded to: SVG Repo, www.svgrepo.com, Generator: SVG Repo Mixer Tools -->
<!DOCTYPE svg PUBLIC "-//W3C//DTD SVG 1.1//EN" "http://www.w3.org/Graphics/SVG/1.1/DTD/svg11.dtd">
<svg fill="#000000" version="1.1" id="Capa_1" xmlns="http://www.w3.org/2000/svg" xmlns:xlink="http://www.w3.org/1999/xlink" 
	 width="800px" height="800px" viewBox="0 0 285.866 285.866"
	 xml:space="preserve">
<g>
	<path d="M225.216,67.73c-1.836-29.988-36.72-46.512-59.976-25.704c-26.316,24.48-9.792,64.26,17.136,79.56
		c-22.644,39.168-44.064,80.172-64.26,120.563c-0.612,1.837-0.612,3.673,0.612,4.284c-1.224,0.612-1.224,3.061,0.612,3.672
		c8.568,3.061,17.136,5.509,25.092,9.181c5.509,2.447,11.017,5.508,17.137,7.956c-1.836,3.672,3.672,7.344,6.12,4.283
		c3.06-4.283,6.119-8.567,9.18-12.852c1.224-1.836,0-4.896-2.448-5.508c-8.568-2.448-17.136-5.508-25.092-9.181l3.06-8.567
		c5.508,3.672,11.628,7.344,17.137,11.016c1.836,1.225,4.896,0.612,5.508-1.224c2.447-4.284,6.12-7.344,7.344-11.017
		c0.612-0.611,0.612-1.836,0-2.447c1.224-1.225,1.836-2.448,0.612-4.284c-1.836-3.061-4.896-3.672-7.956-4.284
		c-2.448-0.612-4.896-1.224-6.732-2.448l0,0c0.612-1.224,1.225-3.06,2.448-4.284c6.731,3.673,13.464,7.345,20.196,11.017
		c1.836,1.224,4.283,0.612,5.508-1.225c2.448-4.283,4.896-8.567,7.956-12.852c1.224-1.836,0.611-4.896-1.225-6.12
		c-8.567-4.284-17.136-7.956-26.315-11.016c15.3-17.136,31.212-36.721,33.66-59.976c26.315,3.06,74.664-13.464,75.275-43.452
		C287.64,59.162,248.472,53.042,225.216,67.73z M187.884,64.67c10.404-1.836,16.524,7.956,15.912,17.748
		c0,0.612,0,1.224,0.612,1.836c-0.612,1.224-0.612,2.448,0,3.06c12.24,12.852,26.315,0,39.168-3.672
		c11.628-3.672,19.584,7.956,8.567,17.136c-3.672,3.06-9.792,4.896-14.075,6.12c-7.956,3.06-15.912,4.284-24.48,6.12
		c-12.852-5.508-25.704-11.016-34.271-23.256C173.196,80.582,174.42,67.118,187.884,64.67z"/>
	<g>
		<path d="M116.892,118.526c0-6.12,1.836-15.912,0-22.032c-3.06-13.464-9.18-12.852-20.196-15.3c-29.376-5.508-64.872,0-94.86,0
			c-0.612,0-1.224,0-1.836-0.612c1.224,17.748,1.836,34.884,3.06,52.632c1.224,18.972-0.612,29.988,21.42,29.988
			c13.464,0,26.316,0,39.78,0.611c11.628,0,32.436,4.896,42.84,0.612C121.788,158.306,116.892,131.378,116.892,118.526z
			 M77.112,109.346c-3.672,4.896-7.344,10.404-11.016,15.3l-0.612,0.612c2.448,4.284,3.06,9.18,2.448,13.464
			c-1.224,9.181-10.404,14.076-18.972,10.404c-2.448-1.224-3.672-4.896-3.06-7.344c1.224-4.284,3.06-8.568,4.284-13.464
			c-0.612-0.612-1.224-1.836-1.224-3.06c-0.612-0.612-1.836-0.612-2.448-1.836c-4.896-1.836-8.568-6.12-11.016-9.792
			c-4.896-7.344,4.284-13.464,11.016-11.016c2.448,1.224,4.896,2.448,6.732,4.284c3.672-3.06,7.344-6.12,11.016-8.568
			c3.06-2.448,7.344-3.06,10.404-0.612C78.336,100.778,79.56,105.674,77.112,109.346z"/>
		<path d="M56.916,32.234c20.808-2.448,25.704,25.092,22.032,41.004c4.896-0.612,10.404-0.612,15.912-1.224
			c-1.224-0.612-1.836-1.836-1.836-3.06c-1.836-21.42-8.568-63.648-40.392-54.468c-25.704,6.732-28.152,36.72-29.988,58.752
			c4.896,0,9.792,0,14.688,0C29.988,57.326,38.556,34.07,56.916,32.234z"/>
	</g>
</g>
</svg>